<svg xmlns="http://www.w3.org/2000/svg" viewBox="0 0 220 160" fill="none">
  <!-- floating sticky notes -->
  <g>
    <g transform="translate(36 30) rotate(-9)">
      <rect x="0" y="0" width="58" height="58" rx="2" fill="#f9d77a" stroke="#c79a3a" stroke-width="0.6"/>
      <rect x="0" y="0" width="58" height="10" fill="#e6c266" opacity="0.6"/>
      <line x1="8" y1="22" x2="48" y2="22" stroke="#8a6a26" stroke-width="0.8" stroke-dasharray="2 3" opacity="0.6"/>
      <line x1="8" y1="32" x2="48" y2="32" stroke="#8a6a26" stroke-width="0.8" stroke-dasharray="2 3" opacity="0.6"/>
      <line x1="8" y1="42" x2="36" y2="42" stroke="#8a6a26" stroke-width="0.8" stroke-dasharray="2 3" opacity="0.6"/>
    </g>
    <g transform="translate(102 22) rotate(6)">
      <rect x="0" y="0" width="62" height="62" rx="2" fill="#f0a8a0" stroke="#a85a52" stroke-width="0.6"/>
      <rect x="0" y="0" width="62" height="10" fill="#d68a82" opacity="0.6"/>
      <line x1="8" y1="24" x2="52" y2="24" stroke="#7a3a32" stroke-width="0.8" stroke-dasharray="2 3" opacity="0.55"/>
      <line x1="8" y1="34" x2="52" y2="34" stroke="#7a3a32" stroke-width="0.8" stroke-dasharray="2 3" opacity="0.55"/>
      <line x1="8" y1="44" x2="40" y2="44" stroke="#7a3a32" stroke-width="0.8" stroke-dasharray="2 3" opacity="0.55"/>
    </g>
    <g transform="translate(64 76) rotate(-3)">
      <rect x="0" y="0" width="56" height="56" rx="2" fill="#b6d3a8" stroke="#5a7a4c" stroke-width="0.6"/>
      <rect x="0" y="0" width="56" height="10" fill="#9ab98c" opacity="0.6"/>
      <path d="M14 26 L24 36 L42 18" stroke="#3a5a2c" stroke-width="1.4" stroke-linecap="round" stroke-linejoin="round" fill="none"/>
    </g>
  </g>
  <!-- sparkles -->
  <g fill="#a08a64" opacity="0.6">
    <path d="M16 60 L18 64 L22 66 L18 68 L16 72 L14 68 L10 66 L14 64 Z"/>
    <path d="M198 38 L199.4 41 L202 42.4 L199.4 43.8 L198 46.8 L196.6 43.8 L194 42.4 L196.6 41 Z"/>
    <path d="M186 122 L188 126 L192 128 L188 130 L186 134 L184 130 L180 128 L184 126 Z"/>
  </g>
</svg>
