<svg xmlns="http://www.w3.org/2000/svg" viewBox="0 0 70 60" fill="none">
  <!-- saucer -->
  <ellipse cx="32" cy="50" rx="28" ry="5" fill="#f6f0dd" stroke="#a08a64" stroke-width="0.8"/>
  <ellipse cx="32" cy="49" rx="22" ry="3" fill="#ece4ca"/>
  <!-- cup -->
  <path d="M14 24 Q14 46 32 46 Q50 46 50 24 Z" fill="#fffaea" stroke="#a08a64" stroke-width="0.9"/>
  <!-- coffee -->
  <ellipse cx="32" cy="24" rx="18" ry="4" fill="#6b3e25"/>
  <ellipse cx="32" cy="23" rx="14" ry="2.5" fill="#8a5230"/>
  <ellipse cx="32" cy="22" rx="8" ry="1.4" fill="#c8a06b" opacity="0.7"/>
  <!-- handle -->
  <path d="M50 28 Q62 30 60 40 Q58 46 50 44" fill="none" stroke="#a08a64" stroke-width="1.6" stroke-linecap="round"/>
  <!-- steam -->
  <g stroke="#b8a37c" stroke-width="1.2" fill="none" stroke-linecap="round" opacity="0.55">
    <path d="M24 14 Q28 8 24 2 Q20 -4 24 -10" transform="translate(0 14)"/>
    <path d="M34 14 Q38 8 34 2 Q30 -4 34 -10" transform="translate(0 14)"/>
  </g>
</svg>
