<svg xmlns="http://www.w3.org/2000/svg" viewBox="0 0 60 80" fill="none">
  <!-- pot -->
  <path d="M14 50 L46 50 L42 76 Q30 80 18 76 Z" fill="#b87a55" stroke="#6b4226" stroke-width="0.8"/>
  <path d="M14 50 L46 50 L48 56 L12 56 Z" fill="#a06640"/>
  <line x1="16" y1="54" x2="44" y2="54" stroke="#6b4226" stroke-width="0.4" opacity="0.5"/>
  <!-- soil -->
  <ellipse cx="30" cy="52" rx="14" ry="3" fill="#5a3a24"/>
  <!-- leaves -->
  <g fill="#6b9048" stroke="#3a5a2c" stroke-width="0.6">
    <path d="M30 50 Q14 30 18 8 Q24 18 30 38 Z"/>
    <path d="M30 50 Q46 30 42 8 Q36 18 30 38 Z" fill="#7ba554"/>
    <path d="M30 50 Q22 26 24 4 Q30 16 30 36 Z" fill="#8ab85c"/>
    <path d="M30 50 Q38 26 36 4 Q30 16 30 36 Z" fill="#5a8038"/>
    <path d="M30 50 Q12 40 6 22 Q20 30 30 44 Z" fill="#7ba554"/>
    <path d="M30 50 Q48 40 54 22 Q40 30 30 44 Z" fill="#5a8038"/>
  </g>
  <!-- leaf veins -->
  <g stroke="#3a5a2c" stroke-width="0.4" fill="none" opacity="0.7">
    <path d="M24 6 Q26 24 30 44"/>
    <path d="M36 6 Q34 24 30 44"/>
  </g>
</svg>
