<svg xmlns="http://www.w3.org/2000/svg" viewBox="0 0 80 20" fill="none" preserveAspectRatio="none">
  <rect x="0" y="2" width="80" height="16" fill="#f7d690" opacity="0.78"/>
  <g stroke="#c79a3a" stroke-width="0.6" opacity="0.6">
    <line x1="4" y1="6" x2="76" y2="6" stroke-dasharray="3 4"/>
    <line x1="4" y1="14" x2="76" y2="14" stroke-dasharray="3 4"/>
  </g>
  <g stroke="#c79a3a" stroke-width="0.3" opacity="0.4">
    <line x1="0" y1="4" x2="80" y2="4"/>
    <line x1="0" y1="16" x2="80" y2="16"/>
  </g>
  <!-- jagged edges -->
  <path d="M0 2 L4 0 L8 2 L12 0 L16 2 L20 0 L24 2 L28 0 L32 2 L36 0 L40 2 L44 0 L48 2 L52 0 L56 2 L60 0 L64 2 L68 0 L72 2 L76 0 L80 2 Z" fill="#f7d690" opacity="0.78"/>
  <path d="M0 18 L4 20 L8 18 L12 20 L16 18 L20 20 L24 18 L28 20 L32 18 L36 20 L40 18 L44 20 L48 18 L52 20 L56 18 L60 20 L64 18 L68 20 L72 18 L76 20 L80 18 Z" fill="#f7d690" opacity="0.78"/>
</svg>
