<svg xmlns="http://www.w3.org/2000/svg" viewBox="0 0 64 64">
  <defs>
    <linearGradient id="fv-paper" x1="0" y1="0" x2="0" y2="1">
      <stop offset="0" stop-color="#f6f0dd"/>
      <stop offset="1" stop-color="#ece4ca"/>
    </linearGradient>
    <linearGradient id="fv-cover" x1="0" y1="0" x2="1" y2="1">
      <stop offset="0" stop-color="#c8b48a"/>
      <stop offset="1" stop-color="#a08a64"/>
    </linearGradient>
  </defs>
  <rect width="64" height="64" rx="14" fill="#e8dfca"/>
  <rect x="10" y="8" width="44" height="48" rx="4" fill="url(#fv-cover)" stroke="#6b5a45" stroke-width="0.6"/>
  <rect x="10" y="8" width="8" height="48" rx="2" fill="#8e7654"/>
  <rect x="22" y="14" width="28" height="38" rx="2" fill="url(#fv-paper)"/>
  <g stroke="#a08a64" stroke-width="0.9" stroke-linecap="round" stroke-dasharray="2 3" opacity="0.6">
    <line x1="26" y1="22" x2="46" y2="22"/>
    <line x1="26" y1="28" x2="46" y2="28"/>
    <line x1="26" y1="34" x2="42" y2="34"/>
    <line x1="26" y1="40" x2="46" y2="40"/>
  </g>
  <path d="M42 8 L42 30 L46 26 L50 30 L50 8 Z" fill="#b94a4a"/>
  <path d="M50 8 L50 30 L46 26 L42 30" fill="none" stroke="#8a3a3a" stroke-width="0.4" opacity="0.6"/>
</svg>
