<svg xmlns="http://www.w3.org/2000/svg" viewBox="0 0 512 512">
  <defs>
    <linearGradient id="ic5-bg" x1="0" y1="0" x2="0" y2="1">
      <stop offset="0" stop-color="#f0e6cd"/>
      <stop offset="1" stop-color="#dcd0b0"/>
    </linearGradient>
    <linearGradient id="ic5-cover" x1="0" y1="0" x2="1" y2="1">
      <stop offset="0" stop-color="#c8b48a"/>
      <stop offset="1" stop-color="#9a8260"/>
    </linearGradient>
    <linearGradient id="ic5-paper" x1="0" y1="0" x2="0" y2="1">
      <stop offset="0" stop-color="#fffaea"/>
      <stop offset="1" stop-color="#ece4ca"/>
    </linearGradient>
    <linearGradient id="ic5-ribbon" x1="0" y1="0" x2="0" y2="1">
      <stop offset="0" stop-color="#d24858"/>
      <stop offset="1" stop-color="#8a3a3a"/>
    </linearGradient>
  </defs>
  <rect width="512" height="512" rx="106" fill="url(#ic5-bg)"/>
  <g opacity="0.15">
    <circle cx="100" cy="80" r="3.6" fill="#6b5a45"/>
    <circle cx="420" cy="160" r="4" fill="#6b5a45"/>
    <circle cx="90" cy="420" r="3" fill="#6b5a45"/>
    <circle cx="430" cy="460" r="3.6" fill="#6b5a45"/>
  </g>
  <rect x="80" y="80" width="352" height="368" rx="26" fill="url(#ic5-cover)" stroke="#5a4a32" stroke-width="3"/>
  <rect x="80" y="80" width="58" height="368" rx="10" fill="#7a6240"/>
  <line x1="128" y1="80" x2="128" y2="448" stroke="#5a4a32" stroke-width="2" opacity="0.6"/>
  <rect x="80" y="150" width="58" height="8" fill="#5a4a32" opacity="0.6"/>
  <rect x="80" y="370" width="58" height="8" fill="#5a4a32" opacity="0.6"/>
  <rect x="166" y="124" width="230" height="284" rx="8" fill="url(#ic5-paper)" stroke="#a08a64" stroke-width="1.6"/>
  <g stroke="#9a8460" stroke-width="5" stroke-linecap="round" stroke-dasharray="8 11" opacity="0.55">
    <line x1="192" y1="170" x2="370" y2="170"/>
    <line x1="192" y1="212" x2="370" y2="212"/>
    <line x1="192" y1="254" x2="332" y2="254"/>
    <line x1="192" y1="296" x2="370" y2="296"/>
    <line x1="192" y1="338" x2="316" y2="338"/>
  </g>
  <path d="M332 80 L332 274 L370 242 L408 274 L408 80 Z" fill="url(#ic5-ribbon)"/>
  <path d="M332 80 L332 274 L370 242" fill="none" stroke="#6b2f24" stroke-width="1.6" opacity="0.55"/>
  <line x1="342" y1="80" x2="342" y2="252" stroke="#f0a8a0" stroke-width="2" opacity="0.5"/>
</svg>
