<svg xmlns="http://www.w3.org/2000/svg" viewBox="0 0 48 48" fill="none">
  <!-- hydrogangea アジサイ + 雨 -->
  <g transform="translate(24 24)">
    <g fill="#8a9cd6" stroke="#4a5a96" stroke-width="0.4">
      <path d="M-8 -4 l3 -3 l3 3 l-3 3 z"/>
      <path d="M-2 -8 l3 -3 l3 3 l-3 3 z" fill="#a0b0e0"/>
      <path d="M4 -4 l3 -3 l3 3 l-3 3 z" fill="#7a8cc6"/>
      <path d="M-6 2 l3 -3 l3 3 l-3 3 z" fill="#a0b0e0"/>
      <path d="M0 0 l3 -3 l3 3 l-3 3 z"/>
      <path d="M6 2 l3 -3 l3 3 l-3 3 z"/>
      <path d="M-2 6 l3 -3 l3 3 l-3 3 z" fill="#7a8cc6"/>
      <path d="M2 8 l3 -3 l3 3 l-3 3 z" fill="#a0b0e0"/>
    </g>
    <!-- center dot -->
    <g fill="#f9d77a" opacity="0.9">
      <circle cx="-5" cy="-1" r="0.8"/>
      <circle cx="1" cy="-5" r="0.8"/>
      <circle cx="7" cy="-1" r="0.8"/>
      <circle cx="-3" cy="5" r="0.8"/>
      <circle cx="3" cy="3" r="0.8"/>
      <circle cx="9" cy="5" r="0.8"/>
      <circle cx="1" cy="9" r="0.8"/>
      <circle cx="5" cy="11" r="0.8"/>
    </g>
  </g>
  <!-- rain -->
  <g stroke="#5a9ad6" stroke-width="1.2" stroke-linecap="round" opacity="0.7">
    <line x1="6" y1="4" x2="4" y2="10"/>
    <line x1="14" y1="2" x2="12" y2="8"/>
    <line x1="40" y1="4" x2="38" y2="10"/>
  </g>
</svg>
