<svg xmlns="http://www.w3.org/2000/svg" viewBox="0 0 48 48" fill="none">
  <!-- furin 風鈴 -->
  <line x1="24" y1="2" x2="24" y2="8" stroke="#6b5a45" stroke-width="0.8"/>
  <circle cx="24" cy="2" r="1.4" fill="#d8b86a" stroke="#6b5a45" stroke-width="0.6"/>
  <path d="M14 12 Q14 6 24 6 Q34 6 34 12 L34 24 Q34 28 24 28 Q14 28 14 24 Z" fill="#bfe0f0" stroke="#5a9ad6" stroke-width="0.8" opacity="0.92"/>
  <path d="M14 24 Q24 30 34 24" fill="none" stroke="#5a9ad6" stroke-width="0.8"/>
  <line x1="24" y1="28" x2="24" y2="34" stroke="#6b5a45" stroke-width="0.6"/>
  <rect x="20" y="34" width="8" height="2" fill="#f6f0dd" stroke="#6b5a45" stroke-width="0.4"/>
  <path d="M20 36 Q22 46 18 46" fill="none" stroke="#c95959" stroke-width="0.7"/>
  <path d="M28 36 Q26 46 30 46" fill="none" stroke="#c95959" stroke-width="0.7"/>
  <path d="M24 36 L24 46" stroke="#c95959" stroke-width="0.7"/>
  <!-- decorative ripple -->
  <path d="M16 16 Q24 14 32 16" stroke="#5a9ad6" stroke-width="0.5" fill="none" opacity="0.7"/>
</svg>
