<svg xmlns="http://www.w3.org/2000/svg" viewBox="0 0 48 48" fill="none">
  <!-- maple もみじ -->
  <g transform="translate(24 26)">
    <path
      d="M0 -16
         L4 -10 L9 -12 L7 -6 L13 -4
         L8 0 L12 6 L4 4 L2 11
         L0 6 L-2 11 L-4 4 L-12 6
         L-8 0 L-13 -4 L-7 -6 L-9 -12 L-4 -10 Z"
      fill="#d04830"
      stroke="#7a2a18"
      stroke-width="0.7"
    />
    <line x1="0" y1="-2" x2="0" y2="14" stroke="#7a2a18" stroke-width="0.6"/>
  </g>
  <!-- small leaves -->
  <path d="M10 8 Q14 6 16 10 Q12 10 10 8 Z" fill="#e07a40" opacity="0.85"/>
  <path d="M38 38 Q42 36 44 40 Q40 40 38 38 Z" fill="#c95959" opacity="0.85"/>
</svg>
