<svg xmlns="http://www.w3.org/2000/svg" viewBox="0 0 48 48" fill="none">
  <!-- snowflake 雪 -->
  <g transform="translate(24 24)" stroke="#5a9ad6" stroke-width="1.2" stroke-linecap="round" fill="none">
    <line x1="0" y1="-14" x2="0" y2="14"/>
    <line x1="-14" y1="0" x2="14" y2="0"/>
    <line x1="-10" y1="-10" x2="10" y2="10"/>
    <line x1="-10" y1="10" x2="10" y2="-10"/>
    <g>
      <line x1="0" y1="-14" x2="-3" y2="-11"/>
      <line x1="0" y1="-14" x2="3" y2="-11"/>
      <line x1="0" y1="14" x2="-3" y2="11"/>
      <line x1="0" y1="14" x2="3" y2="11"/>
      <line x1="-14" y1="0" x2="-11" y2="-3"/>
      <line x1="-14" y1="0" x2="-11" y2="3"/>
      <line x1="14" y1="0" x2="11" y2="-3"/>
      <line x1="14" y1="0" x2="11" y2="3"/>
    </g>
    <circle r="2.4" fill="#bfe0f0" stroke="#5a9ad6"/>
  </g>
  <!-- mini snow -->
  <g fill="#5a9ad6" opacity="0.7">
    <circle cx="8" cy="8" r="1.2"/>
    <circle cx="40" cy="40" r="1.2"/>
    <circle cx="40" cy="10" r="1"/>
    <circle cx="10" cy="40" r="1"/>
  </g>
</svg>
